<?xml version="1.0" encoding="UTF-8"?>
<svg version="1.1" xmlns="http://www.w3.org/2000/svg" width="90" height="78">
<path d="M0 0 C29.7 0 59.4 0 90 0 C90 25.74 90 51.48 90 78 C60.3 78 30.6 78 0 78 C0 52.26 0 26.52 0 0 Z " fill="#6547F1" transform="translate(0,0)"/>
<path d="M0 0 C29.7 0 59.4 0 90 0 C90 25.74 90 51.48 90 78 C60.3 78 30.6 78 0 78 C0 52.26 0 26.52 0 0 Z M20.94140625 10.03515625 C20.48636719 10.70417969 20.03132813 11.37320312 19.5625 12.0625 C19.08941406 12.73410156 18.61632812 13.40570313 18.12890625 14.09765625 C15.7532266 18.10096417 15.80908965 21.94020046 15.76171875 26.44921875 C15.753647 27.18066605 15.74557526 27.91211334 15.73725891 28.66572571 C15.72343637 30.21487065 15.71270603 31.76404581 15.70483398 33.31323242 C15.69334268 34.88721731 15.67293596 36.4611641 15.64331055 38.03491211 C15.21637527 50.15195781 15.21637527 50.15195781 20 61 C21.92351784 63.07786038 21.92351784 63.07786038 24.0625 64.4375 C24.73410156 64.91058594 25.40570313 65.38367188 26.09765625 65.87109375 C31.71397208 69.20397932 38.50640446 68.26192836 44.83105469 68.29516602 C46.34970449 68.30664155 47.86831538 68.32702289 49.38671875 68.35668945 C62.92076438 68.77561827 62.92076438 68.77561827 74.56665039 62.58740234 C79.31566407 57.3047061 80.31378573 52.25093285 80.3359375 45.35546875 C80.3425943 44.62685135 80.3492511 43.89823395 80.35610962 43.14753723 C80.36620182 41.61034658 80.3709277 40.07311242 80.37060547 38.53588867 C80.37496759 36.20481688 80.41128857 33.87565783 80.44921875 31.54492188 C80.56482745 19.60630035 80.56482745 19.60630035 74.62304688 9.5012207 C67.51546388 2.97165008 58.92117625 3.62742988 49.88769531 3.62939453 C47.63789932 3.62502505 45.3900743 3.58866568 43.140625 3.55078125 C34.46290739 3.481049 27.48573921 3.56533182 20.94140625 10.03515625 Z " fill="#FCFDFE" transform="translate(0,0)"/>
<path d="M0 0 C2 3 2 3 2.05859375 5.234375 C0.42312712 9.50710701 -2.67070434 12.1288989 -5.9375 15.25 C-6.58396484 15.88679688 -7.23042969 16.52359375 -7.89648438 17.1796875 C-13.83534575 22.97670692 -13.83534575 22.97670692 -18.125 23.0625 C-19.07375 23.041875 -20.0225 23.02125 -21 23 C-22.51540587 19.96918827 -22.52751932 18.38950846 -22 15 C-19.85081408 12.07171515 -17.27221265 9.66322351 -14.625 7.1875 C-13.57699219 6.1675293 -13.57699219 6.1675293 -12.5078125 5.12695312 C-5.4854028 -1.64562084 -5.4854028 -1.64562084 0 0 Z " fill="#EEEAFD" transform="translate(63,20)"/>
<path d="M0 0 C1.08667969 0.01804687 2.17335938 0.03609375 3.29296875 0.0546875 C4.54013672 0.08949219 4.54013672 0.08949219 5.8125 0.125 C5.4825 1.115 5.1525 2.105 4.8125 3.125 C1.5125 3.455 -1.7875 3.785 -5.1875 4.125 C-5.1875 10.725 -5.1875 17.325 -5.1875 24.125 C1.4125 24.125 8.0125 24.125 14.8125 24.125 C15.1425 20.825 15.4725 17.525 15.8125 14.125 C16.8025 13.795 17.7925 13.465 18.8125 13.125 C18.89328641 15.24938339 18.95159141 17.3746323 19 19.5 C19.05220703 21.27503906 19.05220703 21.27503906 19.10546875 23.0859375 C19.00878906 24.08882812 18.91210938 25.09171875 18.8125 26.125 C14.22778877 29.18147416 9.64169443 28.45384838 4.25 28.4375 C2.64995117 28.46166992 2.64995117 28.46166992 1.01757812 28.48632812 C-0.00013672 28.48697266 -1.01785156 28.48761719 -2.06640625 28.48828125 C-3.0004126 28.49126221 -3.93441895 28.49424316 -4.89672852 28.49731445 C-5.65268311 28.37445068 -6.4086377 28.25158691 -7.1875 28.125 C-10.24397416 23.54028877 -9.51634838 18.95419443 -9.5 13.5625 C-9.51611328 12.49580078 -9.53222656 11.42910156 -9.54882812 10.33007812 C-9.54947266 9.31236328 -9.55011719 8.29464844 -9.55078125 7.24609375 C-9.55376221 6.3120874 -9.55674316 5.37808105 -9.55981445 4.41577148 C-9.43695068 3.65981689 -9.31408691 2.9038623 -9.1875 2.125 C-5.66070901 -0.22619399 -4.15870515 -0.08943452 0 0 Z " fill="#FAF9FE" transform="translate(42.1875,22.875)"/>
<path d="M0 0 C-0.85616196 4.61010288 -3.62744408 7.07089374 -6.875 10.25 C-7.41769531 10.80429687 -7.96039063 11.35859375 -8.51953125 11.9296875 C-12.61991995 16 -12.61991995 16 -16 16 C-15.14383804 11.38989712 -12.37255592 8.92910626 -9.125 5.75 C-8.58230469 5.19570313 -8.03960937 4.64140625 -7.48046875 4.0703125 C-3.38008005 0 -3.38008005 0 0 0 Z " fill="#7A54F2" transform="translate(61,23)"/>
</svg>
